<svg width="76" height="81" viewBox="0 0 76 81" fill="none" xmlns="http://www.w3.org/2000/svg">
<path d="M39.5833 80.2662C29.0852 80.2662 19.017 76.0379 11.5937 68.5115C4.17037 60.9851 0 50.7771 0 40.1331C0 29.4891 4.17037 19.2811 11.5937 11.7547C19.017 4.2283 29.0852 0 39.5833 0C40.1359 0 40.6658 0.222542 41.0565 0.61867C41.4472 1.0148 41.6667 1.55206 41.6667 2.11227C41.6667 2.67248 41.4472 3.20974 41.0565 3.60587C40.6658 4.00199 40.1359 4.22454 39.5833 4.22454C33.7402 4.18941 27.9794 5.62061 22.8142 8.39055C17.649 11.1605 13.24 15.1831 9.98023 20.0999C6.72045 25.0166 4.71114 30.6747 4.13141 36.5699C3.55169 42.465 4.41956 48.4139 6.65767 53.8865C8.89578 59.359 12.4346 64.1851 16.9586 67.9345C21.4827 71.6839 26.8515 74.2402 32.5864 75.3755C38.3213 76.5108 44.2441 76.1898 49.827 74.4412C55.4098 72.6926 60.4792 69.5706 64.5833 65.3536C64.7686 65.1312 64.9972 64.9501 65.2547 64.8216C65.5123 64.693 65.7932 64.6198 66.08 64.6066C66.3668 64.5933 66.6532 64.6403 66.9212 64.7446C67.1892 64.8488 67.4331 65.0081 67.6375 65.2125C67.8419 65.4168 68.0025 65.6618 68.1091 65.932C68.2158 66.2023 68.2662 66.4919 68.2572 66.7829C68.2482 67.0738 68.18 67.3597 68.0568 67.6226C67.9337 67.8855 67.7583 68.1198 67.5417 68.3108C63.8986 72.0869 59.5498 75.0891 54.7494 77.1418C49.949 79.1945 44.7932 80.2567 39.5833 80.2662V80.2662Z" fill="#FF4343"/>
<path d="M38.3333 53.6515C38.0631 53.6603 37.794 53.6123 37.543 53.5105C37.2921 53.4087 37.0646 53.2554 36.8749 53.0601L20.2083 36.1619C20.013 35.9656 19.858 35.7319 19.7522 35.4745C19.6465 35.2171 19.592 34.9411 19.592 34.6622C19.592 34.3834 19.6465 34.1073 19.7522 33.8499C19.858 33.5925 20.013 33.3589 20.2083 33.1625C20.6047 32.7728 21.1352 32.5549 21.6874 32.5549C22.2396 32.5549 22.7701 32.7728 23.1666 33.1625L38.3333 48.5821L72.2916 14.1521C72.6839 13.7543 73.216 13.5309 73.7708 13.5309C74.3256 13.5309 74.8576 13.7543 75.2499 14.1521C75.6422 14.5498 75.8626 15.0893 75.8626 15.6518C75.8626 16.2143 75.6422 16.7538 75.2499 17.1515L39.8333 53.0601C39.6344 53.2546 39.3994 53.407 39.1419 53.5086C38.8843 53.6101 38.6095 53.6587 38.3333 53.6515V53.6515Z" fill="#FF4343"/>
</svg>
